# xmcd CD database file
#
# Track frame offsets:
#	150
#	13673
#	23555
#	41973
#	59760
#	74053
#	82666
#	98266
#	126642
#	147338
#	163808
#	181437
#	192961
#	214326
#	228662
#	242418
#	265351
#	276776
#	291977
#	300457
#	316607
#
# Disc length: 4262 seconds
#
# Revision: 11
# Processed by: cddbd v1.4PL0 Copyright (c) Steve Scherf et al.
# Submitted via: CDex 1.51
#
DISCID=3810a415
DTITLE=Various Artist - Down To The Promised Land: 5 Years Of Bloodshot Records [CD2]
DYEAR=2000
DGENRE=Alt Country
TTITLE0=Robbie Fulks - Bloodshot's Turning 5
TTITLE1=The Cornell Hurd Band - Here Comes My Ball And Chain Again
TTITLE2=Graham Parker w/Waco Brothers - See Willy Fly By
TTITLE3=Nora O'Connor - Looks Like I'm Up Shit Creek Again
TTITLE4=Sadies - Milk And Scissors
TTITLE5=Duane Jarvis - Broken A/C Blues
TTITLE6=Rex Hobart and the Misery Boys - Wicked Saviour
TTITLE7=Andre Williams and Sally Timms - Glue
TTITLE8=Bare Jr - Guitar Playin' Woman
TTITLE9=Giant Sand - Hard On Things
TTITLE10=Ryan Adams - Monday Night
TTITLE11=Trailer Bride - Ghost On The Highway
TTITLE12=Mike Ireland - I'd Like To
TTITLE13=Kelly Hogan and The Pine Valley Cosmonauts - 13 Nights
TTITLE14=Grievous Angels - Hang Your Head In Shame
TTITLE15=Chris Mills and Deanna Varagona - Last To Know
TTITLE16=The Unholy Trio - Bring The Noise
TTITLE17=Chip Taylor w/Jon Langford - Brixton
TTITLE18=Split Lip Rayfield - Train Song
TTITLE19=Red Star Belgrade - Highway To Hell
TTITLE20=Jon Rauhouse - Untitled Pedal Steel Guitar Riff
EXTD=YEAR: 2000
EXTT0=
EXTT1=
EXTT2=
EXTT3=
EXTT4=
EXTT5=
EXTT6=
EXTT7=
EXTT8=
EXTT9=
EXTT10=
EXTT11=
EXTT12=
EXTT13=
EXTT14=
EXTT15=
EXTT16=
EXTT17=
EXTT18=
EXTT19=
EXTT20=
PLAYORDER=
